<?xml version="1.0" encoding="utf-8" standalone="no"?>
<!DOCTYPE svg PUBLIC "-//W3C//DTD SVG 1.1//EN"
  "http://www.w3.org/Graphics/SVG/1.1/DTD/svg11.dtd">
<svg xmlns:xlink="http://www.w3.org/1999/xlink" width="511.791875pt" height="311.540937pt" viewBox="0 0 511.791875 311.540937" xmlns="http://www.w3.org/2000/svg" version="1.1">
 <metadata>
  <rdf:RDF xmlns:dc="http://purl.org/dc/elements/1.1/" xmlns:cc="http://creativecommons.org/ns#" xmlns:rdf="http://www.w3.org/1999/02/22-rdf-syntax-ns#">
   <cc:Work>
    <dc:type rdf:resource="http://purl.org/dc/dcmitype/StillImage"/>
    <dc:date>2026-07-03T05:18:33.903710</dc:date>
    <dc:format>image/svg+xml</dc:format>
    <dc:creator>
     <cc:Agent>
      <dc:title>Matplotlib v3.11.0, https://matplotlib.org/</dc:title>
     </cc:Agent>
    </dc:creator>
   </cc:Work>
  </rdf:RDF>
 </metadata>
 <defs>
  <style type="text/css">*{stroke-linejoin: round; stroke-linecap: butt}</style>
 </defs>
 <g id="figure_1">
  <g id="patch_1">
   <path d="M 0 311.540937 
L 511.791875 311.540937 
L 511.791875 0 
L 0 0 
z
" style="fill: #ffffff"/>
  </g>
  <g id="axes_1">
   <g id="patch_2">
    <path d="M 44.194375 271.798125 
L 490.594375 271.798125 
L 490.594375 22.318125 
L 44.194375 22.318125 
z
" style="fill: #ffffff"/>
   </g>
   <g id="matplotlib.axis_1">
    <g id="xtick_1">
     <g id="line2d_1">
      <defs>
       <path id="m3ed8654cbf" d="M 0 0 
L 0 -4 
" style="stroke: #000000; stroke-width: 0.8"/>
      </defs>
      <g>
       <use xlink:href="#m3ed8654cbf" x="44.194375" y="271.798125" style="stroke: #000000; stroke-width: 0.8"/>
      </g>
     </g>
     <g id="text_1">
      <text style="font-size: 11px; font-family: 'DejaVu Sans', 'Bitstream Vera Sans', 'Computer Modern Sans Serif', 'Lucida Grande', 'Verdana', 'Geneva', 'Lucid', 'Arial', 'Helvetica', 'Avant Garde', sans-serif; text-anchor: middle" x="44.194375" y="283.655547" transform="rotate(-0 44.194375 283.655547)">600</text>
     </g>
    </g>
    <g id="xtick_2">
     <g id="line2d_2">
      <g>
       <use xlink:href="#m3ed8654cbf" x="107.965804" y="271.798125" style="stroke: #000000; stroke-width: 0.8"/>
      </g>
     </g>
     <g id="text_2">
      <text style="font-size: 11px; font-family: 'DejaVu Sans', 'Bitstream Vera Sans', 'Computer Modern Sans Serif', 'Lucida Grande', 'Verdana', 'Geneva', 'Lucid', 'Arial', 'Helvetica', 'Avant Garde', sans-serif; text-anchor: middle" x="107.965804" y="283.655547" transform="rotate(-0 107.965804 283.655547)">800</text>
     </g>
    </g>
    <g id="xtick_3">
     <g id="line2d_3">
      <g>
       <use xlink:href="#m3ed8654cbf" x="171.737232" y="271.798125" style="stroke: #000000; stroke-width: 0.8"/>
      </g>
     </g>
     <g id="text_3">
      <text style="font-size: 11px; font-family: 'DejaVu Sans', 'Bitstream Vera Sans', 'Computer Modern Sans Serif', 'Lucida Grande', 'Verdana', 'Geneva', 'Lucid', 'Arial', 'Helvetica', 'Avant Garde', sans-serif; text-anchor: middle" x="171.737232" y="283.655547" transform="rotate(-0 171.737232 283.655547)">1000</text>
     </g>
    </g>
    <g id="xtick_4">
     <g id="line2d_4">
      <g>
       <use xlink:href="#m3ed8654cbf" x="235.508661" y="271.798125" style="stroke: #000000; stroke-width: 0.8"/>
      </g>
     </g>
     <g id="text_4">
      <text style="font-size: 11px; font-family: 'DejaVu Sans', 'Bitstream Vera Sans', 'Computer Modern Sans Serif', 'Lucida Grande', 'Verdana', 'Geneva', 'Lucid', 'Arial', 'Helvetica', 'Avant Garde', sans-serif; text-anchor: middle" x="235.508661" y="283.655547" transform="rotate(-0 235.508661 283.655547)">1200</text>
     </g>
    </g>
    <g id="xtick_5">
     <g id="line2d_5">
      <g>
       <use xlink:href="#m3ed8654cbf" x="299.280089" y="271.798125" style="stroke: #000000; stroke-width: 0.8"/>
      </g>
     </g>
     <g id="text_5">
      <text style="font-size: 11px; font-family: 'DejaVu Sans', 'Bitstream Vera Sans', 'Computer Modern Sans Serif', 'Lucida Grande', 'Verdana', 'Geneva', 'Lucid', 'Arial', 'Helvetica', 'Avant Garde', sans-serif; text-anchor: middle" x="299.280089" y="283.655547" transform="rotate(-0 299.280089 283.655547)">1400</text>
     </g>
    </g>
    <g id="xtick_6">
     <g id="line2d_6">
      <g>
       <use xlink:href="#m3ed8654cbf" x="363.051518" y="271.798125" style="stroke: #000000; stroke-width: 0.8"/>
      </g>
     </g>
     <g id="text_6">
      <text style="font-size: 11px; font-family: 'DejaVu Sans', 'Bitstream Vera Sans', 'Computer Modern Sans Serif', 'Lucida Grande', 'Verdana', 'Geneva', 'Lucid', 'Arial', 'Helvetica', 'Avant Garde', sans-serif; text-anchor: middle" x="363.051518" y="283.655547" transform="rotate(-0 363.051518 283.655547)">1600</text>
     </g>
    </g>
    <g id="xtick_7">
     <g id="line2d_7">
      <g>
       <use xlink:href="#m3ed8654cbf" x="426.822946" y="271.798125" style="stroke: #000000; stroke-width: 0.8"/>
      </g>
     </g>
     <g id="text_7">
      <text style="font-size: 11px; font-family: 'DejaVu Sans', 'Bitstream Vera Sans', 'Computer Modern Sans Serif', 'Lucida Grande', 'Verdana', 'Geneva', 'Lucid', 'Arial', 'Helvetica', 'Avant Garde', sans-serif; text-anchor: middle" x="426.822946" y="283.655547" transform="rotate(-0 426.822946 283.655547)">1800</text>
     </g>
    </g>
    <g id="xtick_8">
     <g id="line2d_8">
      <g>
       <use xlink:href="#m3ed8654cbf" x="490.594375" y="271.798125" style="stroke: #000000; stroke-width: 0.8"/>
      </g>
     </g>
     <g id="text_8">
      <text style="font-size: 11px; font-family: 'DejaVu Sans', 'Bitstream Vera Sans', 'Computer Modern Sans Serif', 'Lucida Grande', 'Verdana', 'Geneva', 'Lucid', 'Arial', 'Helvetica', 'Avant Garde', sans-serif; text-anchor: middle" x="490.594375" y="283.655547" transform="rotate(-0 490.594375 283.655547)">2000</text>
     </g>
    </g>
    <g id="text_9">
     <!-- Raman shift (cm$^{-1}$) -->
     <g transform="translate(209.314375 301.458125)">
      <text>
       <tspan x="0" y="-0.919" style="font-size: 12px; font-family: 'DejaVu Sans'">R</tspan>
       <tspan x="8.337891" y="-0.919" style="font-size: 12px; font-family: 'DejaVu Sans'">a</tspan>
       <tspan x="15.691406" y="-0.919" style="font-size: 12px; font-family: 'DejaVu Sans'">m</tspan>
       <tspan x="27.380859" y="-0.919" style="font-size: 12px; font-family: 'DejaVu Sans'">a</tspan>
       <tspan x="34.734375" y="-0.919" style="font-size: 12px; font-family: 'DejaVu Sans'">n</tspan>
       <tspan x="42.339844" y="-0.919" style="font-size: 12px; font-family: 'DejaVu Sans'"> </tspan>
       <tspan x="46.154297" y="-0.919" style="font-size: 12px; font-family: 'DejaVu Sans'">s</tspan>
       <tspan x="52.40625" y="-0.919" style="font-size: 12px; font-family: 'DejaVu Sans'">h</tspan>
       <tspan x="60.011719" y="-0.919" style="font-size: 12px; font-family: 'DejaVu Sans'">i</tspan>
       <tspan x="63.345703" y="-0.919" style="font-size: 12px; font-family: 'DejaVu Sans'">f</tspan>
       <tspan x="67.570312" y="-0.919" style="font-size: 12px; font-family: 'DejaVu Sans'">t</tspan>
       <tspan x="72.275391" y="-0.919" style="font-size: 12px; font-family: 'DejaVu Sans'"> </tspan>
       <tspan x="76.089844" y="-0.919" style="font-size: 12px; font-family: 'DejaVu Sans'">(</tspan>
       <tspan x="80.771484" y="-0.919" style="font-size: 12px; font-family: 'DejaVu Sans'">c</tspan>
       <tspan x="87.369141" y="-0.919" style="font-size: 12px; font-family: 'DejaVu Sans'">m</tspan>
       <tspan x="111.88418" y="-0.919" style="font-size: 12px; font-family: 'DejaVu Sans'">)</tspan>
       <tspan x="99.173438" y="-5.875" style="font-size: 8.4px; font-family: 'DejaVu Sans'">−</tspan>
       <tspan x="106.211719" y="-5.875" style="font-size: 8.4px; font-family: 'DejaVu Sans'">1</tspan>
      </text>
     </g>
    </g>
   </g>
   <g id="matplotlib.axis_2">
    <g id="ytick_1">
     <g id="line2d_9">
      <defs>
       <path id="m82cc7689b4" d="M 0 0 
L 4 0 
" style="stroke: #000000; stroke-width: 0.8"/>
      </defs>
      <g>
       <use xlink:href="#m82cc7689b4" x="44.194375" y="258.891333" style="stroke: #000000; stroke-width: 0.8"/>
      </g>
     </g>
     <g id="text_10">
      <text style="font-size: 11px; font-family: 'DejaVu Sans', 'Bitstream Vera Sans', 'Computer Modern Sans Serif', 'Lucida Grande', 'Verdana', 'Geneva', 'Lucid', 'Arial', 'Helvetica', 'Avant Garde', sans-serif; text-anchor: end" x="40.694375" y="263.070044" transform="rotate(-0 40.694375 263.070044)">0.0</text>
     </g>
    </g>
    <g id="ytick_2">
     <g id="line2d_10">
      <g>
       <use xlink:href="#m82cc7689b4" x="44.194375" y="213.844691" style="stroke: #000000; stroke-width: 0.8"/>
      </g>
     </g>
     <g id="text_11">
      <text style="font-size: 11px; font-family: 'DejaVu Sans', 'Bitstream Vera Sans', 'Computer Modern Sans Serif', 'Lucida Grande', 'Verdana', 'Geneva', 'Lucid', 'Arial', 'Helvetica', 'Avant Garde', sans-serif; text-anchor: end" x="40.694375" y="218.023402" transform="rotate(-0 40.694375 218.023402)">0.2</text>
     </g>
    </g>
    <g id="ytick_3">
     <g id="line2d_11">
      <g>
       <use xlink:href="#m82cc7689b4" x="44.194375" y="168.79805" style="stroke: #000000; stroke-width: 0.8"/>
      </g>
     </g>
     <g id="text_12">
      <text style="font-size: 11px; font-family: 'DejaVu Sans', 'Bitstream Vera Sans', 'Computer Modern Sans Serif', 'Lucida Grande', 'Verdana', 'Geneva', 'Lucid', 'Arial', 'Helvetica', 'Avant Garde', sans-serif; text-anchor: end" x="40.694375" y="172.976761" transform="rotate(-0 40.694375 172.976761)">0.4</text>
     </g>
    </g>
    <g id="ytick_4">
     <g id="line2d_12">
      <g>
       <use xlink:href="#m82cc7689b4" x="44.194375" y="123.751408" style="stroke: #000000; stroke-width: 0.8"/>
      </g>
     </g>
     <g id="text_13">
      <text style="font-size: 11px; font-family: 'DejaVu Sans', 'Bitstream Vera Sans', 'Computer Modern Sans Serif', 'Lucida Grande', 'Verdana', 'Geneva', 'Lucid', 'Arial', 'Helvetica', 'Avant Garde', sans-serif; text-anchor: end" x="40.694375" y="127.930119" transform="rotate(-0 40.694375 127.930119)">0.6</text>
     </g>
    </g>
    <g id="ytick_5">
     <g id="line2d_13">
      <g>
       <use xlink:href="#m82cc7689b4" x="44.194375" y="78.704767" style="stroke: #000000; stroke-width: 0.8"/>
      </g>
     </g>
     <g id="text_14">
      <text style="font-size: 11px; font-family: 'DejaVu Sans', 'Bitstream Vera Sans', 'Computer Modern Sans Serif', 'Lucida Grande', 'Verdana', 'Geneva', 'Lucid', 'Arial', 'Helvetica', 'Avant Garde', sans-serif; text-anchor: end" x="40.694375" y="82.883478" transform="rotate(-0 40.694375 82.883478)">0.8</text>
     </g>
    </g>
    <g id="ytick_6">
     <g id="line2d_14">
      <g>
       <use xlink:href="#m82cc7689b4" x="44.194375" y="33.658125" style="stroke: #000000; stroke-width: 0.8"/>
      </g>
     </g>
     <g id="text_15">
      <text style="font-size: 11px; font-family: 'DejaVu Sans', 'Bitstream Vera Sans', 'Computer Modern Sans Serif', 'Lucida Grande', 'Verdana', 'Geneva', 'Lucid', 'Arial', 'Helvetica', 'Avant Garde', sans-serif; text-anchor: end" x="40.694375" y="37.836836" transform="rotate(-0 40.694375 37.836836)">1.0</text>
     </g>
    </g>
    <g id="text_16">
     <text style="font-size: 12px; font-family: 'DejaVu Sans', 'Bitstream Vera Sans', 'Computer Modern Sans Serif', 'Lucida Grande', 'Verdana', 'Geneva', 'Lucid', 'Arial', 'Helvetica', 'Avant Garde', sans-serif; text-anchor: middle" x="16.318125" y="147.058125" transform="rotate(-90 16.318125 147.058125)">Max-normalized intensity</text>
    </g>
   </g>
   <g id="line2d_15">
    <path d="M 44.06314 61.750429 
L 45.187553 61.640479 
L 46.872602 58.644333 
L 47.433867 55.318336 
L 47.994923 59.056646 
L 48.55577 60.2661 
L 49.676837 65.983516 
L 50.237058 65.461252 
L 50.79707 65.653665 
L 51.356874 66.313367 
L 51.916469 64.031898 
L 52.475856 67.577795 
L 53.035035 64.884013 
L 53.594006 63.729535 
L 54.152769 68.292472 
L 54.711324 67.687746 
L 55.269671 67.742721 
L 55.827811 65.81859 
L 56.385743 72.278171 
L 56.943467 70.601429 
L 57.500984 69.419463 
L 58.058294 70.271578 
L 58.615396 68.787249 
L 59.172292 71.893345 
L 59.72898 70.106652 
L 60.285461 71.893345 
L 60.841736 69.199562 
L 61.397803 70.903792 
L 61.953664 71.013743 
L 62.509319 71.343593 
L 63.064767 70.381528 
L 63.620008 69.969215 
L 64.175043 71.371081 
L 64.729872 76.071457 
L 65.284495 72.05827 
L 65.838912 76.676183 
L 66.393123 75.301805 
L 66.947128 75.46673 
L 67.500927 76.48377 
L 68.054521 74.174814 
L 68.607909 77.198447 
L 69.161091 75.769093 
L 69.714068 75.081904 
L 70.26684 79.947205 
L 70.819407 81.568972 
L 71.371768 80.084643 
L 71.923925 84.20778 
L 73.027623 83.822954 
L 73.579165 84.125317 
L 74.130502 82.476062 
L 74.681635 81.184146 
L 75.232563 83.658028 
L 75.783287 81.129171 
L 76.333806 82.915863 
L 77.434233 83.273202 
L 77.98414 80.029668 
L 78.533843 81.678922 
L 79.083343 85.33477 
L 79.632638 80.90927 
L 80.18173 79.09509 
L 80.730618 80.634395 
L 81.279303 79.205041 
L 81.827785 80.606907 
L 82.376063 80.634395 
L 82.924138 81.623947 
L 83.472009 83.767978 
L 84.019678 78.517851 
L 84.567144 83.465615 
L 85.114407 84.345217 
L 85.661467 83.053301 
L 86.208325 83.080789 
L 86.75498 81.541485 
L 87.301432 86.516736 
L 87.847682 81.019221 
L 88.39373 86.406786 
L 88.939575 90.062634 
L 89.485218 88.770717 
L 90.03066 87.066488 
L 90.575899 84.537631 
L 91.120936 90.887261 
L 91.665772 85.444721 
L 92.210406 86.709149 
L 92.754838 92.069227 
L 93.299069 89.567857 
L 93.843098 94.433158 
L 94.386926 91.299575 
L 94.930553 91.739376 
L 95.473979 92.399078 
L 96.017203 91.546963 
L 96.560227 92.866366 
L 97.103049 89.897708 
L 97.645671 92.426565 
L 98.188092 93.058779 
L 99.272332 89.018106 
L 99.814152 91.629425 
L 100.355771 93.443606 
L 100.89719 93.086267 
L 101.438408 95.477686 
L 101.979427 95.78005 
L 102.520246 92.37159 
L 103.060864 96.632165 
L 103.601283 92.701441 
L 104.141502 93.910894 
L 104.681521 95.587637 
L 105.221341 90.859773 
L 105.760961 94.87296 
L 106.300382 91.244599 
L 106.839604 97.566742 
L 107.378626 96.714627 
L 107.917449 97.621717 
L 108.994498 98.061519 
L 109.532725 98.198956 
L 110.070752 98.034031 
L 110.608581 98.968609 
L 111.146211 101.030177 
L 111.683643 97.979056 
L 112.220876 101.085152 
L 112.757911 99.573335 
L 113.294747 102.624456 
L 113.831386 103.229183 
L 114.367826 99.29846 
L 114.904068 102.899332 
L 115.440113 99.51836 
L 115.975959 106.940006 
L 116.511608 103.174208 
L 117.047059 102.102192 
L 117.582313 103.806422 
L 118.117369 100.892739 
L 118.652227 106.610155 
L 119.186889 103.614009 
L 119.721353 105.318239 
L 120.25562 104.191248 
L 121.323563 104.631049 
L 121.857239 104.218736 
L 122.390718 107.929559 
L 122.924001 103.614009 
L 123.457087 107.737146 
L 123.989976 108.012021 
L 124.522669 106.994981 
L 125.055166 107.46227 
L 125.587466 106.55518 
L 126.11957 108.809161 
L 126.651478 108.726699 
L 127.18319 103.339133 
L 127.714706 110.128565 
L 128.246026 105.922966 
L 129.308079 111.502944 
L 129.838812 111.118118 
L 130.36935 111.502944 
L 130.899692 109.248962 
L 131.429839 110.513391 
L 131.95979 110.623341 
L 132.489547 111.173093 
L 133.019108 112.79486 
L 133.548474 109.001574 
L 134.077646 114.004313 
L 134.606622 111.063143 
L 135.135404 113.866875 
L 136.192384 111.695357 
L 136.720582 115.543618 
L 137.248585 113.921851 
L 137.776394 115.241254 
L 138.30401 111.805307 
L 138.83143 115.103816 
L 139.358657 114.691503 
L 139.88569 112.465009 
L 140.412529 118.044987 
L 140.939174 115.103816 
L 141.465625 114.801453 
L 141.991883 116.038394 
L 142.517947 116.395733 
L 143.043818 118.12745 
L 143.569495 115.296229 
L 144.094979 115.818493 
L 144.62027 113.454562 
L 145.145367 115.818493 
L 145.670272 117.247847 
L 146.194983 115.653568 
L 146.719502 119.419366 
L 147.243828 117.522723 
L 147.767961 120.656307 
L 148.291901 119.694242 
L 148.815649 121.041133 
L 149.339204 120.903695 
L 149.862567 122.55295 
L 150.385738 119.859167 
L 150.908716 120.436406 
L 151.431503 119.446854 
L 151.954097 126.126335 
L 152.476499 123.982304 
L 152.998709 123.789891 
L 153.520728 126.566136 
L 154.042555 127.748102 
L 154.56419 125.356683 
L 155.085633 126.373723 
L 155.606885 126.566136 
L 156.127946 124.25718 
L 156.648815 125.988897 
L 157.169493 123.954816 
L 157.68998 125.933922 
L 158.210276 128.435291 
L 158.730381 123.734916 
L 159.250295 124.47708 
L 159.770018 127.170863 
L 160.28955 125.439145 
L 160.808892 132.118627 
L 161.328043 129.974596 
L 161.847004 132.503453 
L 162.365774 126.648599 
L 162.884354 128.435291 
L 163.402743 129.452332 
L 163.920943 127.418251 
L 164.956772 129.040018 
L 165.474401 130.799223 
L 165.991841 129.177456 
L 166.509091 128.847605 
L 167.026151 130.60681 
L 167.543021 127.858052 
L 168.059702 131.458925 
L 168.576194 131.211537 
L 169.092496 128.68268 
L 169.608609 134.372608 
L 170.124533 128.187903 
L 170.640268 132.585916 
L 171.155813 130.964149 
L 171.67117 130.991636 
L 172.186338 133.932807 
L 172.701317 131.321487 
L 173.216107 131.239024 
L 173.730709 132.393503 
L 174.245122 132.173602 
L 174.759347 134.23517 
L 175.273383 132.118627 
L 175.787231 136.489152 
L 176.300891 138.633183 
L 176.814363 138.578207 
L 177.327646 134.949847 
L 177.840742 133.657931 
L 178.353649 137.836043 
L 178.866369 137.973481 
L 179.378902 138.743133 
L 179.891246 134.647484 
L 180.403403 142.618881 
L 180.915372 138.275844 
L 181.427155 138.468257 
L 181.938749 140.887164 
L 182.450157 139.760173 
L 182.961377 144.735425 
L 183.47241 141.794254 
L 183.983256 141.739279 
L 184.493915 141.464403 
L 185.004388 138.083431 
L 185.514673 143.470996 
L 186.024772 141.326965 
L 186.534685 141.959179 
L 187.04441 144.323111 
L 187.55395 143.580946 
L 188.063302 146.49463 
L 188.572469 141.299478 
L 189.081449 140.529825 
L 189.590244 140.584801 
L 190.098852 143.855822 
L 190.607274 144.295623 
L 191.11551 139.925099 
L 191.623561 144.048235 
L 192.131426 141.079577 
L 193.146598 146.219754 
L 193.653906 143.718384 
L 194.161029 147.264282 
L 194.667966 142.893757 
L 195.174718 143.580946 
L 195.681285 145.065276 
L 196.187666 142.673856 
L 196.693863 146.164779 
L 197.199874 143.470996 
L 197.705701 145.779953 
L 198.211343 144.817887 
L 198.7168 143.333558 
L 199.222073 145.779953 
L 199.727161 144.075723 
L 200.232065 147.484182 
L 200.736784 145.175226 
L 201.241319 144.68045 
L 201.745669 146.109804 
L 202.249836 144.295623 
L 202.753818 147.40172 
L 203.257616 149.078462 
L 203.761231 148.886049 
L 204.264661 147.566645 
L 204.767908 149.490776 
L 205.270971 147.236794 
L 205.77385 147.923984 
L 206.276546 152.212046 
L 206.779059 147.704083 
L 207.281388 147.62162 
L 207.783533 148.831074 
L 208.285496 145.532564 
L 208.787275 150.452841 
L 209.288871 146.49463 
L 209.790285 148.253835 
L 210.291515 153.366524 
L 210.792562 152.102095 
L 211.293427 151.634807 
L 211.794109 149.628213 
L 212.294608 152.074608 
L 212.794925 152.624359 
L 213.29506 153.723862 
L 213.795012 153.064161 
L 214.294781 150.947617 
L 214.794369 156.417645 
L 215.293774 154.438539 
L 215.792997 157.104834 
L 216.292039 156.500108 
L 216.790898 154.081201 
L 217.289575 158.809064 
L 217.788071 153.971251 
L 218.286385 156.142769 
L 218.784517 156.829959 
L 219.282468 155.015779 
L 219.780238 158.094387 
L 220.277826 155.56553 
L 220.775232 157.984437 
L 221.272458 155.290654 
L 221.769502 157.15981 
L 222.266365 155.235679 
L 222.763047 155.290654 
L 223.259549 158.149362 
L 223.755869 152.981698 
L 224.252009 156.802471 
L 224.747968 155.070754 
L 225.243746 151.442394 
L 225.739344 157.709561 
L 226.234761 152.239533 
L 226.729998 153.696375 
L 227.225055 156.720008 
L 227.719931 155.043266 
L 228.214627 154.438539 
L 228.709143 151.085055 
L 229.203479 155.67548 
L 229.697635 154.795878 
L 230.191612 153.229086 
L 230.685408 156.47262 
L 231.179025 154.521002 
L 231.672462 157.956949 
L 232.16572 156.280207 
L 232.658798 162.822251 
L 233.151696 159.551229 
L 233.644416 159.99103 
L 234.136956 161.392897 
L 235.121498 162.959688 
L 235.613501 159.386303 
L 236.105325 160.568269 
L 236.59697 165.103719 
L 237.088436 159.936055 
L 237.579723 163.344515 
L 238.070832 161.80521 
L 238.561762 162.382449 
L 239.052513 164.608943 
L 239.543086 162.574862 
L 240.033481 165.32362 
L 240.523698 159.908567 
L 241.013736 164.224117 
L 241.503596 159.661179 
L 241.993278 161.832698 
L 242.482782 162.959688 
L 242.972108 162.437424 
L 243.461257 165.845884 
L 243.950227 164.608943 
L 244.43902 164.663918 
L 244.927635 166.890412 
L 245.416073 165.763421 
L 245.904333 168.73208 
L 246.392416 163.591903 
L 246.880321 169.804095 
L 247.368049 166.258198 
L 247.855601 165.818396 
L 248.342974 168.347254 
L 248.830171 166.835437 
L 249.317191 169.831583 
L 249.804034 167.110313 
L 250.290701 166.560561 
L 250.77719 169.666657 
L 251.263503 169.364294 
L 251.74964 167.330213 
L 252.235599 166.752974 
L 252.721383 168.347254 
L 253.20699 166.972875 
L 253.69242 168.594642 
L 254.177675 168.759567 
L 254.662753 163.949241 
L 255.147655 168.84203 
L 255.632382 165.955834 
L 256.116932 165.571008 
L 256.601307 167.989915 
L 257.085505 166.862924 
L 257.569528 168.897005 
L 258.537048 168.237303 
L 259.020544 170.628723 
L 259.503865 166.285685 
L 259.98701 172.168027 
L 260.469981 172.058077 
L 260.952776 170.271384 
L 261.435396 173.212555 
L 261.917841 171.508325 
L 262.400111 173.624868 
L 262.882206 169.254344 
L 263.364126 171.480837 
L 263.845872 171.150986 
L 264.327442 172.195514 
L 264.808839 174.147132 
L 265.29006 172.415415 
L 265.771107 173.542406 
L 266.25198 175.301611 
L 266.732679 173.927232 
L 267.213203 174.28457 
L 267.693553 173.020142 
L 268.173729 168.567154 
L 268.65373 172.332952 
L 269.133558 172.277977 
L 269.613212 167.055337 
L 270.092693 167.24775 
L 270.571999 165.735934 
L 271.051132 165.571008 
L 271.530091 167.962428 
L 272.008876 168.154841 
L 272.487489 166.615536 
L 272.965927 170.436309 
L 273.444193 170.65621 
L 273.922285 171.865663 
L 274.400204 172.442903 
L 274.87795 171.068524 
L 275.355523 171.645763 
L 275.832923 171.205962 
L 276.31015 172.827729 
L 276.787204 172.36044 
L 277.264085 174.97176 
L 277.740794 171.013549 
L 278.21733 172.168027 
L 278.693694 177.528104 
L 279.169885 175.411561 
L 279.645904 178.517657 
L 280.121751 175.603974 
L 280.597425 176.346139 
L 281.072927 175.933825 
L 281.548257 175.054222 
L 282.023415 171.975614 
L 282.498401 172.332952 
L 282.973215 174.009695 
L 283.447857 172.140539 
L 283.922327 175.246635 
L 284.396626 173.652356 
L 284.870753 170.381334 
L 285.344709 173.927232 
L 285.818493 168.319766 
L 286.292106 170.298872 
L 286.765547 169.85907 
L 287.238817 167.770014 
L 287.711916 169.63917 
L 288.184844 169.309319 
L 288.657601 175.796387 
L 289.130187 173.37748 
L 289.602602 178.874996 
L 290.074846 178.874996 
L 290.546919 178.545145 
L 291.018822 182.036067 
L 291.490554 181.486316 
L 291.962115 180.4143 
L 292.433506 182.200993 
L 292.904726 182.283455 
L 293.375777 182.943157 
L 293.846656 180.52425 
L 294.317366 182.008579 
L 294.787906 181.238927 
L 295.258275 178.874996 
L 295.728475 182.036067 
L 296.198504 182.091042 
L 296.668364 182.448381 
L 297.138054 182.558331 
L 297.607574 186.571517 
L 298.076924 183.355471 
L 298.546105 187.121269 
L 299.015117 186.708955 
L 299.483959 187.890921 
L 299.952631 185.609452 
L 300.421134 184.977238 
L 300.889468 188.688061 
L 301.357633 187.231219 
L 301.825629 184.702362 
L 302.293456 185.691915 
L 302.761114 186.049253 
L 303.228602 187.368657 
L 303.695923 185.032213 
L 304.163074 186.159204 
L 304.630056 185.444527 
L 305.09687 188.24826 
L 305.563516 186.324129 
L 306.029993 188.193284 
L 306.496301 185.417039 
L 306.962442 189.457713 
L 307.428414 187.698508 
L 308.359853 187.588558 
L 308.825321 188.028359 
L 309.29062 187.56107 
L 309.755752 185.609452 
L 310.220715 187.341169 
L 310.685511 185.499502 
L 311.15014 185.059701 
L 311.6146 188.330722 
L 312.078893 190.419778 
L 312.543019 188.028359 
L 313.470767 189.705101 
L 313.934391 189.347763 
L 314.397847 188.523135 
L 314.861135 190.474753 
L 315.324257 186.65398 
L 315.787212 189.925002 
L 316.25 189.979977 
L 316.71262 191.959082 
L 317.175074 192.811197 
L 317.637362 192.261446 
L 318.099482 192.728735 
L 318.561436 191.464306 
L 319.023223 192.948635 
L 319.484844 186.901368 
L 319.946298 191.931595 
L 320.407586 191.574256 
L 320.868708 194.213064 
L 321.790453 191.821645 
L 322.251076 191.18943 
L 322.711533 194.900253 
L 323.171824 190.392291 
L 323.63195 192.976123 
L 324.091909 193.883213 
L 324.551703 192.536322 
L 325.011331 190.144902 
L 325.470793 191.106968 
L 325.93009 192.426371 
L 326.389221 189.842539 
L 326.848187 192.233958 
L 327.306987 188.330722 
L 327.765623 189.925002 
L 328.224093 192.069033 
L 328.682397 189.842539 
L 329.140537 189.072887 
L 329.598512 187.231219 
L 330.056322 187.973384 
L 330.513966 188.385697 
L 330.971446 183.602859 
L 331.428762 186.516542 
L 331.885912 183.520396 
L 332.79972 185.389551 
L 333.256376 180.331837 
L 333.712869 183.108083 
L 334.169197 181.816166 
L 334.625361 182.365918 
L 335.08136 183.163058 
L 335.537196 182.805719 
L 335.992867 188.798011 
L 336.448374 190.96953 
L 336.903717 191.794157 
L 337.358897 191.684207 
L 337.813912 190.392291 
L 338.268764 197.484085 
L 338.723452 197.181722 
L 339.177976 196.631971 
L 339.632337 196.906846 
L 340.086535 195.724881 
L 340.540569 197.374135 
L 340.994439 200.810082 
L 341.448146 197.016797 
L 341.90169 196.329607 
L 342.355071 200.04043 
L 342.808289 200.590182 
L 343.261343 199.490679 
L 343.714235 199.683092 
L 344.166964 196.494533 
L 344.61953 199.518166 
L 345.071933 201.524759 
L 345.524173 201.139933 
L 345.976251 196.247145 
L 346.428166 200.700132 
L 346.879919 200.095405 
L 347.331509 200.452744 
L 347.782937 199.82053 
L 348.234202 198.391176 
L 348.685305 201.607222 
L 349.136246 199.848017 
L 349.587025 200.397769 
L 350.037642 202.266924 
L 350.488096 200.920033 
L 350.938389 202.184461 
L 351.38852 201.387321 
L 351.838489 200.205356 
L 352.288297 200.562694 
L 352.737942 202.486825 
L 353.187427 202.156974 
L 353.636749 198.693539 
L 354.08591 203.256477 
L 354.53491 200.782595 
L 355.432425 199.518166 
L 355.880941 204.218542 
L 356.329295 203.064064 
L 356.777489 203.421402 
L 357.225521 202.844163 
L 357.673393 200.370281 
L 358.121103 204.218542 
L 358.568653 203.66879 
L 359.016042 201.497272 
L 359.46327 202.679238 
L 359.910338 201.029983 
L 360.357245 204.823269 
L 360.803991 201.772148 
L 361.250577 196.824384 
L 361.697003 202.596775 
L 362.143268 201.167421 
L 362.589373 202.294412 
L 363.035318 201.827123 
L 363.481103 202.7617 
L 363.926727 204.410955 
L 364.372192 202.211949 
L 364.817496 202.734213 
L 365.262641 198.803489 
L 365.707626 203.393915 
L 366.152451 204.46593 
L 366.597117 204.603368 
L 367.041623 207.352126 
L 367.485969 205.427995 
L 367.930156 207.846902 
L 368.374183 205.098144 
L 368.818051 205.565433 
L 369.26176 211.062949 
L 369.705309 206.445036 
L 370.148699 209.468669 
L 370.59193 206.527498 
L 371.035002 208.753992 
L 371.477915 210.073396 
L 371.920669 207.07725 
L 372.363264 208.341679 
L 372.805701 207.104738 
L 373.247978 209.083843 
L 373.690097 207.764439 
L 374.132058 207.627001 
L 374.57386 207.846902 
L 375.015503 207.929365 
L 375.456988 209.331231 
L 375.898314 205.290557 
L 376.339482 205.235582 
L 376.780492 206.500011 
L 377.221344 204.57588 
L 377.662038 206.939812 
L 378.102573 201.469784 
L 378.542951 207.1872 
L 378.98317 205.675384 
L 379.423232 206.445036 
L 379.863136 204.988194 
L 380.302882 205.867797 
L 380.742471 208.753992 
L 381.181902 204.383467 
L 382.060291 212.052501 
L 382.499249 210.843048 
L 382.93805 212.629741 
L 383.376694 209.716057 
L 383.815181 211.282849 
L 384.25351 210.073396 
L 384.691682 213.31693 
L 385.129697 210.788073 
L 386.005257 215.186085 
L 386.442801 215.076135 
L 386.880188 212.767178 
L 387.317419 212.29989 
L 387.754493 216.14815 
L 388.191411 214.22402 
L 388.628172 211.145411 
L 389.064776 216.670414 
L 389.501224 213.042054 
L 389.937515 214.031607 
L 390.373651 214.33397 
L 390.80963 209.441182 
L 391.245452 212.492303 
L 391.681119 214.663821 
L 392.116629 213.344418 
L 392.551984 212.574765 
L 392.987183 213.097029 
L 393.422225 214.22402 
L 393.857112 213.784219 
L 394.291843 215.92825 
L 394.726419 210.100883 
L 395.160838 213.619293 
L 395.595102 212.079989 
L 396.029211 211.337824 
L 396.463164 213.619293 
L 396.896962 212.40984 
L 397.330604 212.877129 
L 397.764091 214.169045 
L 398.197423 214.306483 
L 398.6306 214.773772 
L 399.063622 215.433473 
L 399.496488 213.729244 
L 399.9292 214.691309 
L 400.361757 217.385091 
L 400.794159 216.175638 
L 401.658498 216.697902 
L 402.090436 216.203126 
L 402.522219 217.659967 
L 402.953847 216.120663 
L 403.385321 215.02116 
L 403.816641 215.790812 
L 404.247806 220.491188 
L 404.678817 218.677008 
L 405.109673 213.921657 
L 405.540376 218.979371 
L 405.970924 217.055241 
L 406.401318 220.381237 
L 406.831559 215.873275 
L 407.261645 218.484595 
L 407.691577 218.127256 
L 408.121356 216.972778 
L 408.550981 216.230613 
L 408.980452 218.429619 
L 409.409769 213.756731 
L 409.838933 217.192678 
L 410.267943 215.460961 
L 410.6968 217.74243 
L 411.125504 217.550017 
L 411.554054 217.192678 
L 411.982451 213.839194 
L 412.410694 217.027753 
L 412.838784 222.003004 
L 413.266722 216.752877 
L 413.694506 218.704495 
L 414.122137 216.780365 
L 414.549616 217.63248 
L 414.976941 219.55661 
L 415.404114 219.281734 
L 415.831133 217.74243 
L 416.258001 219.749023 
L 417.111277 221.563203 
L 417.537686 218.869421 
L 417.963943 218.319669 
L 418.390048 223.652259 
L 418.816 223.294921 
L 419.2418 221.315815 
L 419.667448 218.347157 
L 420.092943 222.525268 
L 420.518287 219.144296 
L 420.943478 221.398278 
L 421.368518 222.992557 
L 421.793405 222.827632 
L 422.218141 220.628626 
L 422.642725 222.195417 
L 423.067157 221.205865 
L 423.491437 220.601138 
L 423.915566 220.381237 
L 424.763369 218.53957 
L 425.187043 218.841933 
L 425.610566 221.975517 
L 426.033937 221.453253 
L 426.457157 218.979371 
L 426.880226 221.700641 
L 427.303144 222.305368 
L 428.148526 222.580244 
L 428.570991 223.18497 
L 428.993305 221.673153 
L 429.415468 223.07502 
L 430.259341 222.607731 
L 430.681052 223.679747 
L 431.102612 225.383976 
L 431.524021 223.432358 
L 431.94528 220.298775 
L 432.787346 225.658852 
L 433.208154 228.160222 
L 433.628811 223.404871 
L 434.049318 223.597284 
L 434.469675 222.96507 
L 434.889882 226.016191 
L 435.309939 225.823778 
L 435.729845 223.652259 
L 436.149602 224.971663 
L 436.569209 224.751762 
L 436.988666 227.033231 
L 437.407974 227.088206 
L 438.246139 225.356489 
L 438.664998 226.840818 
L 439.083706 223.899647 
L 439.502266 225.109101 
L 439.920676 225.356489 
L 440.338936 225.933728 
L 440.757047 222.910094 
L 441.175009 224.99915 
L 441.592822 229.149774 
L 442.010486 224.724275 
L 442.428 225.933728 
L 442.845366 223.047532 
L 443.262583 224.394424 
L 443.67965 227.253132 
L 444.096569 226.565942 
L 444.513339 228.764948 
L 444.92996 226.923281 
L 445.346433 227.967809 
L 445.762757 224.944175 
L 446.594959 227.995296 
L 447.010838 228.957361 
L 447.426568 228.572535 
L 448.257583 224.696787 
L 448.672868 228.654998 
L 449.088005 228.435097 
L 449.917835 229.42465 
L 450.332528 225.658852 
L 450.747073 230.414203 
L 451.16147 230.11184 
L 451.575719 230.579129 
L 451.98982 226.428504 
L 452.403774 228.709973 
L 452.81758 229.809476 
L 453.231239 229.919427 
L 453.64475 229.809476 
L 454.058113 229.974402 
L 454.471329 228.077759 
L 454.884398 229.617063 
L 455.297319 229.479625 
L 455.710093 228.957361 
L 456.12272 227.005743 
L 456.947532 228.325147 
L 457.359718 230.689079 
L 457.771756 230.606616 
L 458.183648 228.29766 
L 458.595393 230.936467 
L 459.00699 229.067312 
L 459.418442 230.194302 
L 459.829746 227.802883 
L 460.240904 229.644551 
L 460.651915 229.617063 
L 461.06278 229.039824 
L 461.473498 232.283358 
L 461.88407 228.077759 
L 462.294495 229.369675 
L 462.704774 231.513706 
L 463.114907 230.551641 
L 463.524894 230.771542 
L 463.934734 231.431243 
L 464.344429 231.01893 
L 464.753977 232.72316 
L 465.572636 232.860597 
L 465.981746 227.50052 
L 466.390711 231.541194 
L 466.79953 233.520299 
L 467.208203 233.025523 
L 467.616731 229.754501 
L 468.025113 229.507113 
L 468.43335 228.929874 
L 468.841441 231.92602 
L 469.249386 232.200896 
L 469.657186 232.283358 
L 470.064841 231.486219 
L 470.472351 229.452138 
L 470.879715 235.059604 
L 471.286935 229.672038 
L 471.694009 230.001889 
L 472.100938 229.122287 
L 472.507722 231.183855 
L 472.914361 231.073905 
L 473.320856 231.92602 
L 473.727205 229.479625 
L 474.13341 230.496666 
L 474.53947 235.774281 
L 474.945385 231.541194 
L 475.351156 232.695672 
L 475.756782 233.245424 
L 476.162264 232.695672 
L 476.567601 233.575274 
L 476.972794 233.575274 
L 477.377843 236.681371 
L 477.782747 237.148659 
L 478.187507 230.139327 
L 478.592123 234.812215 
L 478.996595 232.94306 
L 479.400923 235.087091 
L 479.805106 231.871045 
L 480.209146 235.829256 
L 480.613042 236.818809 
L 481.016794 234.702265 
L 481.420402 235.829256 
L 481.823867 234.922166 
L 482.227188 235.966694 
L 482.630365 234.75724 
L 483.033398 236.653883 
L 483.436289 237.25861 
L 483.839035 230.304253 
L 484.241638 234.564827 
L 485.046415 234.454877 
L 485.448588 235.746793 
L 485.850618 230.33174 
L 486.252505 237.038709 
L 487.05585 231.12888 
L 487.858623 234.125026 
L 488.259795 234.509852 
L 488.660824 231.706119 
L 489.061711 235.581868 
L 489.462455 234.64729 
L 489.863056 234.64729 
L 490.263514 237.36856 
L 490.66383 234.399902 
L 490.66383 234.399902 
" clip-path="url(#p6f2f053b41)" style="fill: none; stroke: #808080; stroke-opacity: 0.85; stroke-linecap: square"/>
   </g>
   <g id="line2d_16">
    <path d="M 43.750374 72.074647 
L 44.200247 71.507488 
L 44.650119 72.091181 
L 45.099991 72.12292 
L 45.999736 69.544805 
L 46.449608 68.426727 
L 47.349352 65.057034 
L 47.799225 66.570581 
L 49.148841 73.95027 
L 49.598714 74.479327 
L 50.048586 76.058277 
L 50.498458 77.055237 
L 50.94833 77.190246 
L 51.398203 76.826376 
L 51.848075 77.058594 
L 52.297947 76.908601 
L 52.747819 76.920862 
L 54.097436 77.334124 
L 54.547308 77.147443 
L 55.447053 78.648959 
L 55.896925 78.772028 
L 56.346797 79.644671 
L 57.246542 80.246302 
L 58.596158 81.971493 
L 59.046031 82.568451 
L 59.495903 82.184727 
L 59.945775 82.09568 
L 60.395647 82.598059 
L 60.84552 82.677361 
L 61.745264 83.523303 
L 62.195136 83.510079 
L 62.645009 83.373643 
L 63.994625 84.760224 
L 65.794114 87.086144 
L 66.243987 87.981895 
L 67.143731 88.479399 
L 67.593603 89.286207 
L 68.493348 91.248819 
L 69.393092 92.007329 
L 69.842965 92.459666 
L 70.292837 92.420337 
L 71.642454 94.613204 
L 72.092326 95.203489 
L 72.99207 95.482458 
L 73.441943 95.392118 
L 73.891815 95.528277 
L 74.341687 95.412887 
L 74.791559 95.100593 
L 75.691304 95.852719 
L 77.04092 95.547624 
L 77.490793 95.429177 
L 78.840409 95.84787 
L 79.290282 95.569527 
L 79.740154 95.060487 
L 80.190026 95.791369 
L 80.639898 95.726783 
L 81.089771 96.104807 
L 81.989515 96.016841 
L 82.439387 96.381533 
L 82.88926 96.497878 
L 83.339132 96.847791 
L 83.789004 96.720888 
L 84.238876 96.786467 
L 84.688749 97.156021 
L 85.138621 97.250445 
L 85.588493 98.08783 
L 86.038365 98.340573 
L 86.93811 99.686497 
L 87.387982 99.978782 
L 87.837854 99.438731 
L 88.287727 100.790426 
L 88.737599 101.617572 
L 89.637343 102.522319 
L 90.087216 103.283596 
L 90.537088 102.707291 
L 90.98696 103.738344 
L 91.436832 104.210606 
L 91.886705 104.489587 
L 92.336577 105.154889 
L 92.786449 106.38105 
L 93.236321 105.715695 
L 93.686193 106.132481 
L 94.136066 106.758165 
L 94.585938 107.190685 
L 95.03581 107.283922 
L 95.485682 107.119372 
L 95.935555 106.273743 
L 97.285171 106.87835 
L 97.735044 106.801766 
L 98.184916 105.929421 
L 98.634788 105.908929 
L 99.08466 106.10608 
L 100.434277 107.147262 
L 100.884149 108.013782 
L 101.334022 109.307251 
L 101.783894 110.107187 
L 102.233766 110.463587 
L 104.033255 110.942603 
L 104.483127 111.310227 
L 105.832744 111.729295 
L 106.282616 111.48391 
L 106.732489 112.228105 
L 107.182361 112.512927 
L 107.632233 112.447504 
L 108.082105 112.502164 
L 109.881594 114.541891 
L 110.331467 114.513406 
L 110.781339 114.801771 
L 111.231211 115.606783 
L 111.681083 115.077575 
L 112.130956 115.466749 
L 112.580828 115.474591 
L 113.480572 116.875533 
L 113.930444 116.888893 
L 114.380317 116.739439 
L 114.830189 117.690307 
L 115.280061 118.126777 
L 115.729933 118.376871 
L 116.629678 118.612251 
L 117.07955 119.098724 
L 117.529422 120.460783 
L 117.979295 119.821741 
L 118.429167 119.79659 
L 119.778784 121.853415 
L 120.228656 121.978152 
L 120.678528 122.477133 
L 121.1284 122.380372 
L 121.578273 122.902132 
L 122.028145 123.700267 
L 122.478017 123.817986 
L 122.927889 123.511684 
L 123.827634 124.226434 
L 124.727378 124.467526 
L 125.177251 124.594074 
L 125.627123 124.154882 
L 126.076995 124.632499 
L 126.526867 125.453711 
L 126.97674 125.601917 
L 127.426612 125.610559 
L 128.326356 125.849219 
L 128.776229 125.806094 
L 129.675973 127.103015 
L 130.125845 126.982223 
L 130.575718 126.707821 
L 131.02559 127.082947 
L 131.475462 127.954455 
L 131.925334 127.783526 
L 132.375206 127.804742 
L 132.825079 128.606572 
L 133.274951 128.814143 
L 133.724823 128.527589 
L 134.174695 128.576677 
L 134.624568 128.993695 
L 135.07444 129.821934 
L 135.974184 129.967016 
L 136.873929 131.13697 
L 137.773673 130.585951 
L 138.673418 131.450581 
L 139.12329 132.042836 
L 139.573162 132.212211 
L 140.023035 132.115959 
L 141.372651 133.770526 
L 141.822524 134.213622 
L 142.722268 133.535347 
L 143.17214 133.784335 
L 143.622013 133.809391 
L 144.521757 134.803824 
L 144.971629 134.979685 
L 145.421502 135.027877 
L 145.871374 134.878688 
L 146.321246 135.033229 
L 146.771118 136.306363 
L 147.220991 136.178821 
L 148.570607 136.874432 
L 149.470352 137.861551 
L 150.370096 137.620319 
L 152.169585 140.448549 
L 152.619457 140.817257 
L 153.06933 140.766716 
L 153.519202 141.207037 
L 154.418946 141.670547 
L 154.868819 141.943442 
L 155.768563 142.729826 
L 156.668308 142.590848 
L 157.11818 143.345543 
L 157.568052 143.160281 
L 158.017924 143.555903 
L 158.917669 143.165449 
L 159.817413 144.338439 
L 160.267286 143.972444 
L 160.717158 145.036276 
L 161.16703 144.967452 
L 161.616902 145.118259 
L 162.066775 145.539095 
L 162.516647 145.712479 
L 162.966519 145.682638 
L 163.416391 146.669961 
L 163.866264 146.434518 
L 164.766008 146.743226 
L 165.21588 147.577158 
L 165.665753 147.866454 
L 166.115625 147.048176 
L 166.565497 147.111233 
L 167.015369 148.027033 
L 167.465242 148.268722 
L 168.364986 148.110809 
L 168.814858 148.219699 
L 169.714603 148.604639 
L 170.164475 148.125298 
L 170.614347 148.446005 
L 171.064219 149.358667 
L 171.514092 149.265305 
L 172.413836 149.545753 
L 173.313581 149.413422 
L 173.763453 148.944781 
L 174.663197 149.958031 
L 175.11307 150.005518 
L 176.462686 150.811754 
L 177.362431 151.959474 
L 177.812303 151.764983 
L 178.262175 152.984379 
L 179.16192 154.42836 
L 180.061664 155.336889 
L 180.511537 155.601446 
L 180.961409 156.048062 
L 181.411281 155.324329 
L 181.861153 156.146355 
L 182.311026 156.459927 
L 182.760898 157.179256 
L 183.21077 157.563942 
L 183.660642 157.241638 
L 184.110515 157.061038 
L 184.560387 158.012693 
L 185.010259 158.35716 
L 185.460131 159.174142 
L 185.910004 158.859962 
L 186.359876 159.235338 
L 187.25962 161.12291 
L 187.709493 161.573002 
L 188.159365 160.998221 
L 188.609237 159.193478 
L 189.059109 158.377793 
L 189.508982 158.438331 
L 189.958854 158.283792 
L 190.408726 158.717894 
L 191.30847 159.734593 
L 192.208215 160.330723 
L 192.658087 160.478462 
L 193.107959 161.211033 
L 193.557832 160.58933 
L 194.007704 160.874378 
L 194.457576 160.991043 
L 195.807193 160.506688 
L 196.706937 161.017581 
L 197.15681 160.189832 
L 197.606682 160.308953 
L 198.056554 160.659213 
L 198.506426 160.669213 
L 198.956299 161.140916 
L 199.406171 161.208955 
L 199.856043 160.647219 
L 200.305915 161.881572 
L 200.755788 162.223449 
L 201.20566 161.945584 
L 201.655532 162.433115 
L 202.105404 160.999754 
L 203.005149 163.669717 
L 204.354766 164.798425 
L 205.25451 165.520586 
L 205.704382 165.495222 
L 206.154255 166.694331 
L 206.604127 167.092458 
L 207.053999 166.481022 
L 207.503871 166.114473 
L 207.953744 166.290438 
L 208.403616 166.33686 
L 210.203105 167.223045 
L 210.652977 166.868001 
L 212.002594 167.722932 
L 212.452466 168.204147 
L 212.902338 168.306593 
L 213.35221 169.061928 
L 213.802083 169.468615 
L 214.251955 168.930847 
L 216.051444 171.317958 
L 216.951188 170.972302 
L 217.401061 171.330599 
L 217.850933 171.449206 
L 218.300805 171.124343 
L 218.750677 172.316866 
L 219.20055 171.779607 
L 219.650422 172.196302 
L 220.100294 171.754927 
L 220.550166 171.60794 
L 221.000039 171.937056 
L 221.449911 171.973011 
L 221.899783 171.762544 
L 222.349655 171.98781 
L 222.799528 172.082941 
L 223.2494 172.547051 
L 223.699272 171.80065 
L 224.149144 171.319726 
L 225.498761 171.778672 
L 225.948633 171.56022 
L 226.398506 170.821163 
L 227.29825 170.591274 
L 227.748122 169.589385 
L 228.647867 168.712631 
L 229.097739 168.857218 
L 229.547611 168.584225 
L 229.997483 168.598858 
L 230.897228 169.099186 
L 231.3471 169.552393 
L 231.796972 169.796302 
L 232.246845 169.846939 
L 232.696717 172.605207 
L 233.146589 172.50316 
L 233.596461 172.913094 
L 234.046334 173.915498 
L 234.496206 174.365806 
L 234.946078 175.045894 
L 235.39595 175.373877 
L 235.845823 175.562685 
L 236.745567 176.88686 
L 237.195439 176.815879 
L 237.645312 177.535112 
L 238.095184 178.499392 
L 238.545056 177.822992 
L 238.994928 178.854081 
L 239.444801 178.819566 
L 239.894673 179.381798 
L 240.344545 179.247346 
L 241.24429 179.902194 
L 241.694162 179.763796 
L 242.144034 179.762744 
L 242.593906 180.227793 
L 243.043779 180.187922 
L 243.493651 180.589438 
L 243.943523 180.400652 
L 244.843268 180.493465 
L 246.192884 181.693156 
L 247.092629 181.493327 
L 247.992373 180.904655 
L 248.442245 181.365588 
L 248.892118 180.820391 
L 249.34199 181.729 
L 249.791862 181.505581 
L 250.241734 180.704049 
L 250.691607 181.443244 
L 251.141479 181.650515 
L 251.591351 181.704031 
L 252.041223 181.453526 
L 252.940968 181.944463 
L 253.840712 181.784466 
L 254.290585 181.724163 
L 254.740457 181.832884 
L 255.190329 182.350481 
L 255.640201 183.203639 
L 256.090074 181.827565 
L 256.539946 183.102139 
L 256.989818 183.394195 
L 257.43969 183.230997 
L 257.889563 183.791767 
L 258.789307 183.807319 
L 259.689052 184.335124 
L 260.138924 184.941476 
L 260.588796 185.332152 
L 261.038668 185.041737 
L 261.488541 185.381432 
L 261.938413 185.880845 
L 262.388285 185.799222 
L 262.838157 185.200081 
L 263.28803 185.196713 
L 263.737902 185.803264 
L 264.187774 184.941647 
L 264.637646 184.75198 
L 265.087519 184.896362 
L 265.537391 185.158061 
L 265.987263 185.06303 
L 266.437135 184.538604 
L 267.33688 184.284814 
L 268.686496 182.260357 
L 269.136369 182.298008 
L 269.586241 180.120798 
L 270.036113 179.240848 
L 270.485985 179.089569 
L 270.935858 178.304529 
L 271.38573 179.032039 
L 271.835602 179.990941 
L 272.285474 180.629908 
L 273.185219 182.741298 
L 274.084963 184.669114 
L 274.534836 185.050161 
L 274.984708 185.164256 
L 276.334325 186.625865 
L 276.784197 186.656024 
L 277.234069 187.271179 
L 277.683941 186.89944 
L 278.133814 187.163192 
L 278.583686 187.92158 
L 279.033558 187.682987 
L 279.48343 188.096652 
L 279.933303 188.189518 
L 280.383175 187.679271 
L 281.282919 187.09176 
L 282.182664 186.580229 
L 282.632536 185.57679 
L 284.432025 184.295889 
L 284.881897 183.190974 
L 285.33177 182.674673 
L 286.681386 178.635639 
L 287.131258 179.050738 
L 287.581131 179.965416 
L 288.480875 183.917575 
L 288.930747 186.608243 
L 289.38062 188.55037 
L 290.280364 190.712059 
L 292.529725 193.894552 
L 292.979598 194.129379 
L 293.42947 195.044427 
L 293.879342 194.342121 
L 294.329214 194.80279 
L 294.779087 194.792761 
L 295.228959 195.26086 
L 295.678831 194.662222 
L 296.128703 195.014882 
L 296.578576 195.94037 
L 297.028448 196.148279 
L 297.47832 196.503035 
L 298.827937 196.723193 
L 299.277809 197.094853 
L 300.177554 196.85914 
L 300.627426 197.293015 
L 301.077298 197.305151 
L 301.52717 197.073925 
L 302.426915 197.096685 
L 303.776532 197.728122 
L 304.226404 197.353616 
L 304.676276 197.493849 
L 305.126148 197.886999 
L 305.576021 197.554556 
L 306.025893 198.293555 
L 306.475765 197.853436 
L 306.925637 198.138253 
L 307.375509 198.079835 
L 307.825382 199.030567 
L 308.275254 199.283984 
L 308.725126 198.712338 
L 309.174998 199.110933 
L 309.624871 198.405341 
L 310.074743 198.810184 
L 310.524615 199.062582 
L 310.974487 199.458365 
L 311.874232 199.08535 
L 312.324104 199.686828 
L 313.223849 200.222072 
L 313.673721 200.762076 
L 314.123593 200.44629 
L 314.573465 200.34916 
L 315.923082 200.788264 
L 316.372954 201.201054 
L 317.272699 201.5357 
L 317.722571 201.571073 
L 318.172443 202.05136 
L 318.622316 201.643033 
L 319.072188 201.994133 
L 319.52206 201.681458 
L 319.971932 201.947579 
L 320.421805 201.655945 
L 320.871677 201.989712 
L 321.771421 201.696923 
L 322.221294 201.662119 
L 322.671166 201.467795 
L 323.57091 201.462619 
L 324.020783 201.113689 
L 324.470655 201.497221 
L 324.920527 200.827515 
L 325.370399 200.83038 
L 325.820271 201.173755 
L 326.270144 200.234366 
L 326.720016 200.676041 
L 327.169888 200.427626 
L 327.61976 199.906234 
L 328.069633 199.673138 
L 328.969377 199.747293 
L 329.419249 199.060446 
L 330.768866 196.365957 
L 331.218738 195.704913 
L 332.118483 193.803171 
L 332.568355 193.176903 
L 333.4681 191.120919 
L 333.917972 190.759824 
L 334.817716 191.712236 
L 335.267589 192.850272 
L 337.51695 201.744296 
L 337.966822 202.777631 
L 338.416694 204.146036 
L 338.866567 204.468639 
L 339.766311 205.857423 
L 340.216183 206.497971 
L 340.666056 206.895193 
L 341.115928 207.600604 
L 341.5658 207.61206 
L 342.015672 208.044815 
L 342.465545 208.16323 
L 342.915417 208.045899 
L 343.365289 208.119603 
L 343.815161 208.465625 
L 344.265034 208.541504 
L 344.714906 208.996053 
L 346.064522 208.587862 
L 346.514395 208.927927 
L 347.414139 208.906439 
L 347.864011 209.035388 
L 348.313884 209.32319 
L 349.213628 209.116154 
L 349.6635 209.483768 
L 350.563245 208.8869 
L 351.013117 209.640945 
L 351.462989 209.741254 
L 353.712351 208.994499 
L 354.162223 209.542772 
L 354.612095 209.538131 
L 355.061967 209.202545 
L 355.51184 209.417096 
L 355.961712 209.999222 
L 356.411584 210.135127 
L 356.861456 210.086842 
L 357.311329 209.766386 
L 357.761201 210.067732 
L 358.211073 210.04162 
L 358.660945 210.261523 
L 359.110818 210.678283 
L 360.010562 210.534537 
L 360.460434 210.234447 
L 360.910307 209.674059 
L 361.360179 209.422557 
L 361.810051 209.025962 
L 362.259923 209.063051 
L 362.709796 209.384803 
L 363.159668 209.156252 
L 363.60954 209.305181 
L 364.059412 209.196001 
L 365.409029 210.158836 
L 365.858901 210.776433 
L 366.758646 212.658774 
L 367.208518 212.591463 
L 368.558135 213.932972 
L 369.008007 213.957109 
L 369.907751 214.830858 
L 370.807496 214.644714 
L 371.70724 214.985809 
L 372.157113 215.4412 
L 372.606985 215.414276 
L 373.056857 215.08368 
L 374.406474 214.612373 
L 374.856346 214.411228 
L 375.306218 214.049684 
L 375.756091 214.207971 
L 376.205963 213.76369 
L 376.655835 213.499619 
L 377.105707 213.541423 
L 377.55558 212.82944 
L 378.905196 212.772025 
L 379.355069 213.20906 
L 379.804941 213.93005 
L 380.254813 214.02504 
L 380.704685 215.2943 
L 381.154558 215.144973 
L 381.60443 216.760497 
L 382.054302 217.065478 
L 382.504174 216.954252 
L 382.954046 217.033841 
L 383.403919 217.772222 
L 383.853791 217.782742 
L 384.753535 218.349968 
L 385.65328 218.514049 
L 386.103152 219.076373 
L 386.553024 219.3423 
L 387.002897 219.224978 
L 387.452769 219.351284 
L 388.352513 219.285292 
L 388.802386 219.309781 
L 389.252258 219.859742 
L 389.70213 219.902495 
L 390.152002 219.524175 
L 390.601875 219.000354 
L 391.051747 219.283468 
L 391.501619 219.899059 
L 391.951491 220.055978 
L 392.401364 219.853151 
L 393.301108 220.418611 
L 394.200853 220.329908 
L 394.650725 220.097547 
L 395.100597 220.79849 
L 396.000342 220.892052 
L 396.450214 221.167392 
L 396.900086 220.570241 
L 397.349958 221.036313 
L 397.799831 220.893584 
L 398.699575 221.458222 
L 399.59932 221.230545 
L 400.049192 221.470445 
L 400.499064 221.187565 
L 400.948936 221.65131 
L 401.398809 221.954124 
L 402.298553 222.070123 
L 402.748425 221.845478 
L 403.198297 221.886817 
L 403.64817 222.129612 
L 404.098042 222.111588 
L 404.547914 222.39823 
L 404.997786 222.032122 
L 406.347403 222.505458 
L 407.247148 222.451329 
L 407.69702 222.894606 
L 408.146892 222.858388 
L 408.596764 223.122693 
L 409.046637 222.851814 
L 409.946381 222.789841 
L 410.396253 222.732434 
L 410.846126 222.950077 
L 411.74587 222.704364 
L 412.195742 222.667008 
L 412.645615 223.444107 
L 413.095487 223.815417 
L 413.545359 223.359905 
L 413.995231 223.176568 
L 414.445104 223.167218 
L 416.244593 224.042074 
L 416.694465 224.556096 
L 417.144337 224.09779 
L 417.594209 224.157459 
L 418.044082 223.876418 
L 418.943826 224.715676 
L 419.393698 224.939911 
L 420.293443 224.600894 
L 421.193187 225.628057 
L 421.643059 225.211783 
L 422.092932 225.545911 
L 422.542804 225.231883 
L 422.992676 225.896772 
L 423.892421 225.624066 
L 424.342293 225.278987 
L 424.792165 225.707982 
L 425.69191 226.081554 
L 426.141782 226.046967 
L 427.491399 226.497835 
L 427.941271 226.967099 
L 428.841015 227.011734 
L 429.290888 226.901122 
L 429.74076 227.209667 
L 430.640504 226.992118 
L 431.090377 227.163438 
L 431.540249 226.832879 
L 432.439993 226.850314 
L 432.889866 227.349186 
L 434.239482 227.675461 
L 435.139227 227.609499 
L 435.589099 228.190035 
L 436.038971 228.38996 
L 436.938716 228.300004 
L 437.388588 228.502356 
L 437.83846 228.052804 
L 438.288333 228.301806 
L 439.188077 228.22639 
L 440.087822 228.982412 
L 440.987566 228.698024 
L 441.437438 228.845226 
L 441.88731 228.796365 
L 442.337183 229.095426 
L 442.787055 228.988357 
L 443.236927 229.0363 
L 443.686799 229.446005 
L 444.136672 230.145748 
L 445.486288 229.784557 
L 446.386033 230.353835 
L 446.835905 230.424558 
L 447.285777 230.348021 
L 447.73565 230.089889 
L 448.185522 230.431602 
L 448.635394 230.166236 
L 449.085266 230.367678 
L 449.535139 231.068696 
L 449.985011 230.740401 
L 451.7845 231.081245 
L 452.234372 230.973301 
L 452.684244 231.020494 
L 453.134117 231.46811 
L 453.583989 230.807739 
L 454.033861 231.833103 
L 454.483733 231.629123 
L 454.933606 231.595116 
L 455.383478 231.721762 
L 455.83335 231.503963 
L 456.283222 231.454987 
L 456.733095 231.809545 
L 457.632839 231.993537 
L 458.082711 231.76384 
L 458.532584 231.94734 
L 458.982456 231.978132 
L 459.432328 232.298119 
L 459.8822 231.930215 
L 460.332072 232.225152 
L 460.781945 232.146431 
L 461.231817 231.848615 
L 461.681689 231.895755 
L 462.131561 231.784796 
L 462.581434 231.993315 
L 463.031306 231.994572 
L 463.481178 232.307793 
L 463.93105 232.141631 
L 464.830795 232.044653 
L 465.280667 232.666349 
L 466.180412 232.36036 
L 466.630284 232.761328 
L 467.080156 232.933027 
L 467.530028 232.51521 
L 467.979901 232.711252 
L 468.429773 232.50952 
L 469.77939 233.265639 
L 470.679134 233.23666 
L 471.129006 233.776511 
L 471.578879 233.226459 
L 472.478623 233.603229 
L 472.928495 233.789246 
L 473.378368 233.602693 
L 473.82824 233.907037 
L 474.278112 234.075612 
L 474.727984 234.064209 
L 475.177857 234.167085 
L 475.627729 234.10748 
L 476.077601 233.66201 
L 476.527473 234.198163 
L 476.977346 234.011954 
L 477.427218 234.65307 
L 477.87709 234.66514 
L 478.326962 234.368712 
L 478.776835 234.667195 
L 480.126451 234.707722 
L 480.576323 235.151486 
L 481.026196 235.14728 
L 481.476068 234.815558 
L 481.92594 235.223197 
L 482.825685 235.593458 
L 483.725429 235.348327 
L 484.175301 235.079039 
L 484.625174 235.400175 
L 485.075046 235.551689 
L 485.97479 235.55786 
L 486.424663 235.754013 
L 486.874535 235.603778 
L 487.324407 235.309738 
L 487.774279 235.741211 
L 488.224152 235.590304 
L 488.674024 235.874108 
L 489.573768 235.601203 
L 490.023641 235.697888 
L 490.473513 236.11194 
L 490.923385 235.759603 
L 490.923385 235.759603 
" clip-path="url(#p6f2f053b41)" style="fill: none; stroke: #000080; stroke-opacity: 0.85; stroke-linecap: square"/>
   </g>
   <g id="line2d_17">
    <path d="M 43.750374 72.710725 
L 44.200247 72.151522 
L 44.650119 72.677586 
L 45.099991 72.198277 
L 45.549863 70.923216 
L 45.999736 70.714163 
L 46.449608 70.140678 
L 47.349352 66.999966 
L 48.249097 70.276188 
L 48.698969 72.864321 
L 49.148841 74.627062 
L 49.598714 74.349276 
L 50.048586 75.997869 
L 50.498458 76.998206 
L 50.94833 76.798998 
L 51.398203 77.142233 
L 51.848075 77.899422 
L 52.297947 78.320127 
L 52.747819 78.18484 
L 53.197692 77.294028 
L 53.647564 76.914892 
L 54.097436 78.108324 
L 54.547308 77.957907 
L 54.997181 78.178852 
L 55.447053 79.386049 
L 55.896925 79.217732 
L 56.346797 78.853748 
L 56.796669 79.532699 
L 57.246542 79.723444 
L 57.696414 80.111601 
L 58.146286 82.070245 
L 58.596158 82.057861 
L 59.046031 82.400826 
L 59.495903 82.381948 
L 59.945775 83.21012 
L 60.84552 81.701766 
L 61.295392 82.799781 
L 61.745264 82.400494 
L 62.195136 82.236601 
L 63.094881 83.932157 
L 63.544753 81.500402 
L 63.994625 82.682724 
L 64.444498 83.192412 
L 64.89437 83.49106 
L 65.344242 84.381503 
L 65.794114 86.35021 
L 66.243987 86.228926 
L 66.693859 86.817329 
L 67.143731 88.078843 
L 67.593603 87.975837 
L 68.043476 88.28844 
L 68.94322 90.16458 
L 69.393092 89.030453 
L 69.842965 88.951985 
L 70.292837 89.309529 
L 70.742709 92.374377 
L 71.192581 92.086792 
L 71.642454 92.21041 
L 72.092326 93.593404 
L 72.542198 93.495119 
L 72.99207 93.753047 
L 73.441943 92.914639 
L 73.891815 93.235616 
L 74.341687 93.26396 
L 74.791559 92.11021 
L 75.241431 93.542494 
L 75.691304 93.452099 
L 76.141176 94.223135 
L 76.591048 93.843533 
L 77.04092 93.245522 
L 77.490793 93.882636 
L 77.940665 94.094938 
L 78.390537 92.975736 
L 78.840409 93.325539 
L 79.290282 93.267131 
L 79.740154 92.727024 
L 80.190026 93.03312 
L 80.639898 93.202031 
L 81.089771 92.583561 
L 81.989515 94.639788 
L 82.439387 93.327271 
L 82.88926 94.932708 
L 83.339132 95.021385 
L 83.789004 94.514739 
L 84.238876 95.721533 
L 84.688749 95.533386 
L 85.138621 95.519583 
L 85.588493 96.558009 
L 86.038365 96.656434 
L 86.93811 98.327865 
L 87.387982 97.537608 
L 87.837854 97.991209 
L 88.287727 99.328915 
L 88.737599 100.178882 
L 89.187471 99.884304 
L 89.637343 100.78211 
L 90.087216 102.023927 
L 90.537088 100.172272 
L 90.98696 103.059669 
L 91.886705 101.928254 
L 92.336577 102.960894 
L 92.786449 105.035409 
L 93.236321 104.165124 
L 93.686193 104.193908 
L 95.03581 105.493151 
L 95.485682 106.313472 
L 95.935555 104.400034 
L 96.385427 104.891893 
L 96.835299 104.855958 
L 97.285171 104.94512 
L 97.735044 105.876177 
L 98.184916 104.552768 
L 98.634788 104.906973 
L 99.08466 106.260184 
L 99.534533 105.682662 
L 99.984405 106.374206 
L 100.434277 105.791729 
L 100.884149 106.652426 
L 101.783894 110.415639 
L 102.233766 110.130694 
L 102.683638 109.000187 
L 103.133511 109.139552 
L 103.583383 109.080783 
L 104.033255 109.983396 
L 104.483127 109.511857 
L 104.933 109.554178 
L 105.382872 109.453395 
L 105.832744 109.678705 
L 106.282616 109.571184 
L 106.732489 111.43575 
L 107.182361 111.340304 
L 107.632233 110.159424 
L 108.082105 111.129315 
L 108.531978 113.348872 
L 108.98185 112.552012 
L 109.431722 112.040158 
L 109.881594 112.795869 
L 110.331467 113.138086 
L 110.781339 113.035757 
L 111.231211 115.557673 
L 111.681083 113.881827 
L 112.130956 113.927922 
L 112.580828 112.976583 
L 113.0307 114.327018 
L 113.480572 114.895178 
L 113.930444 116.058492 
L 114.380317 116.565906 
L 114.830189 116.627914 
L 115.729933 117.703934 
L 116.179806 117.383875 
L 116.629678 117.298614 
L 117.07955 118.04674 
L 117.529422 119.963467 
L 117.979295 118.710558 
L 118.429167 118.97629 
L 118.879039 119.691509 
L 119.328911 120.117619 
L 119.778784 121.193138 
L 120.228656 120.509418 
L 120.678528 120.386845 
L 121.1284 120.798125 
L 121.578273 120.93537 
L 122.028145 121.546914 
L 122.478017 123.00367 
L 122.927889 123.15884 
L 123.377762 123.082533 
L 123.827634 123.476745 
L 124.277506 123.386286 
L 124.727378 123.169485 
L 125.177251 123.602684 
L 125.627123 122.724198 
L 126.076995 123.104223 
L 126.526867 124.626437 
L 126.97674 124.234972 
L 127.426612 124.809853 
L 127.876484 124.993143 
L 128.326356 123.880457 
L 128.776229 124.561806 
L 129.226101 124.977002 
L 129.675973 126.126487 
L 130.125845 126.361019 
L 130.575718 125.869689 
L 131.02559 126.018072 
L 131.475462 127.139999 
L 131.925334 126.207859 
L 132.375206 126.60002 
L 132.825079 127.755663 
L 133.274951 128.014004 
L 133.724823 126.6981 
L 134.174695 127.900452 
L 134.624568 127.435377 
L 135.07444 129.005436 
L 135.524312 129.002272 
L 135.974184 128.186485 
L 136.424057 128.683945 
L 136.873929 130.195668 
L 137.323801 129.334166 
L 137.773673 130.340492 
L 138.223546 129.83336 
L 139.12329 131.048488 
L 139.573162 131.178841 
L 140.023035 130.792287 
L 140.472907 132.086703 
L 140.922779 132.911949 
L 141.372651 131.590879 
L 141.822524 132.916535 
L 142.272396 132.267176 
L 142.722268 131.981746 
L 143.17214 133.208335 
L 143.622013 132.422645 
L 144.071885 132.207597 
L 144.521757 134.140655 
L 144.971629 134.532596 
L 145.421502 134.568318 
L 145.871374 133.258693 
L 146.771118 133.918268 
L 147.220991 134.686984 
L 147.670863 136.51833 
L 148.120735 136.602398 
L 148.570607 135.80461 
L 149.02048 136.153623 
L 149.470352 136.306062 
L 149.920224 137.223941 
L 151.269841 138.017145 
L 152.169585 139.203083 
L 152.619457 140.398472 
L 153.06933 140.855321 
L 153.519202 140.473347 
L 153.969074 141.38935 
L 154.868819 140.910673 
L 155.318691 141.139177 
L 155.768563 141.810764 
L 156.218435 142.969822 
L 156.668308 140.577686 
L 157.568052 142.803895 
L 158.017924 143.233401 
L 158.917669 142.107708 
L 159.367541 142.570134 
L 159.817413 144.138767 
L 160.267286 142.990223 
L 160.717158 145.790308 
L 161.16703 145.627552 
L 161.616902 144.853781 
L 162.066775 145.31968 
L 162.516647 146.204158 
L 162.966519 145.739863 
L 163.416391 145.694558 
L 163.866264 145.834883 
L 164.316136 146.257883 
L 164.766008 146.16895 
L 165.21588 147.011503 
L 165.665753 147.254299 
L 166.115625 146.974887 
L 167.015369 147.103377 
L 167.465242 147.14848 
L 167.915114 148.03435 
L 168.814858 148.514384 
L 169.264731 148.369579 
L 170.164475 149.072134 
L 170.614347 148.449068 
L 171.064219 150.068884 
L 171.514092 150.267245 
L 171.963964 150.315048 
L 172.413836 149.497106 
L 172.863708 150.181499 
L 173.313581 151.183524 
L 174.213325 149.800328 
L 175.11307 151.27995 
L 175.562942 150.666219 
L 176.012814 151.113589 
L 176.462686 151.871403 
L 176.912559 151.68814 
L 177.812303 153.082821 
L 178.262175 153.372653 
L 178.712048 154.191987 
L 179.16192 154.591484 
L 179.611792 156.021606 
L 180.061664 155.952395 
L 180.511537 156.63161 
L 180.961409 157.07053 
L 181.411281 155.832681 
L 182.760898 158.285571 
L 183.21077 158.297579 
L 183.660642 157.602847 
L 184.110515 157.717792 
L 184.560387 158.914888 
L 185.010259 158.468207 
L 185.460131 160.573809 
L 185.910004 158.701589 
L 186.359876 159.438686 
L 186.809748 161.490562 
L 187.25962 162.542888 
L 187.709493 163.005319 
L 188.609237 160.45782 
L 189.059109 160.798096 
L 189.508982 159.925851 
L 189.958854 159.586515 
L 190.858598 161.139247 
L 191.30847 160.948281 
L 191.758343 161.412721 
L 192.208215 161.563884 
L 192.658087 160.731731 
L 193.107959 160.973424 
L 193.557832 162.220711 
L 194.007704 162.159312 
L 194.457576 162.461622 
L 194.907448 162.557233 
L 195.357321 162.934389 
L 195.807193 163.06387 
L 196.257065 162.548819 
L 196.706937 162.671249 
L 197.606682 162.130685 
L 198.506426 161.675251 
L 198.956299 162.829779 
L 199.406171 162.408169 
L 199.856043 162.198865 
L 200.305915 162.66599 
L 200.755788 163.751047 
L 201.20566 163.257911 
L 201.655532 163.714251 
L 202.105404 163.457682 
L 202.555277 164.228791 
L 203.005149 165.261108 
L 203.455021 166.613646 
L 203.904893 166.18122 
L 205.25451 167.900709 
L 205.704382 167.69511 
L 206.154255 168.581792 
L 206.604127 168.871184 
L 207.053999 167.839845 
L 207.503871 167.927321 
L 207.953744 169.289403 
L 208.403616 168.547945 
L 208.853488 168.903898 
L 209.30336 169.572219 
L 209.753232 169.166942 
L 210.203105 169.978234 
L 210.652977 169.491964 
L 211.552721 170.385863 
L 212.002594 170.564702 
L 212.902338 171.460492 
L 213.35221 171.65641 
L 214.251955 170.984605 
L 214.701827 172.07871 
L 215.151699 172.157511 
L 215.601572 173.578656 
L 216.051444 173.859713 
L 216.951188 173.327481 
L 217.401061 173.658248 
L 217.850933 174.800303 
L 218.300805 174.265262 
L 218.750677 174.437857 
L 219.20055 174.782778 
L 219.650422 174.22893 
L 220.100294 174.806376 
L 220.550166 173.952107 
L 221.000039 173.683254 
L 221.449911 173.868125 
L 221.899783 174.425313 
L 222.349655 175.417733 
L 222.799528 174.503993 
L 223.2494 175.476835 
L 223.699272 174.485319 
L 224.149144 173.974419 
L 224.599017 174.803792 
L 225.048889 174.995191 
L 225.498761 174.468388 
L 225.948633 175.026465 
L 226.398506 175.030689 
L 227.29825 173.311249 
L 227.748122 173.250667 
L 228.197995 172.6777 
L 228.647867 172.430819 
L 229.997483 172.46772 
L 230.897228 173.587067 
L 231.3471 173.970418 
L 232.246845 174.075965 
L 232.696717 176.015934 
L 233.146589 175.926134 
L 233.596461 176.746634 
L 234.046334 177.171554 
L 234.496206 178.453258 
L 235.39595 178.629294 
L 235.845823 179.132876 
L 236.295695 178.761739 
L 236.745567 180.012267 
L 237.195439 180.502656 
L 237.645312 179.977076 
L 238.095184 182.01262 
L 238.545056 180.77224 
L 238.994928 181.656638 
L 239.444801 181.056408 
L 239.894673 182.897149 
L 240.344545 182.684775 
L 241.24429 183.929217 
L 241.694162 183.362908 
L 242.144034 183.145362 
L 242.593906 184.433764 
L 243.043779 183.727191 
L 243.493651 184.244858 
L 243.943523 183.754114 
L 244.393395 184.019891 
L 244.843268 183.670203 
L 245.29314 184.874002 
L 245.743012 185.522237 
L 246.192884 185.653522 
L 246.642757 185.481816 
L 247.092629 185.024311 
L 247.542501 184.773558 
L 247.992373 185.807534 
L 248.442245 184.46904 
L 249.34199 185.301775 
L 249.791862 186.161838 
L 250.241734 184.799891 
L 250.691607 185.489542 
L 251.141479 185.240635 
L 251.591351 185.603229 
L 252.491096 185.035931 
L 252.940968 185.357149 
L 253.39084 186.634278 
L 253.840712 185.899136 
L 254.290585 185.551721 
L 254.740457 185.529983 
L 255.190329 186.114781 
L 255.640201 186.937483 
L 256.090074 186.226677 
L 256.539946 186.543864 
L 256.989818 188.010285 
L 257.43969 187.458758 
L 257.889563 188.085107 
L 258.339435 188.480077 
L 258.789307 188.242947 
L 259.239179 188.762509 
L 260.588796 188.8908 
L 261.038668 189.546522 
L 261.488541 189.579459 
L 261.938413 190.493858 
L 262.838157 189.631596 
L 263.28803 189.148032 
L 263.737902 190.69871 
L 264.637646 189.300119 
L 265.537391 189.635362 
L 265.987263 189.942769 
L 266.437135 189.615717 
L 266.887008 188.397311 
L 267.33688 188.34668 
L 267.786752 187.951052 
L 268.236624 188.097321 
L 268.686496 187.948058 
L 269.136369 186.482581 
L 269.586241 185.846256 
L 270.036113 184.94007 
L 270.935858 184.182513 
L 271.38573 184.441289 
L 272.285474 185.222513 
L 272.735347 186.473129 
L 273.185219 187.131215 
L 273.635091 188.472443 
L 274.084963 189.333733 
L 274.534836 189.74246 
L 274.984708 190.613391 
L 275.43458 189.897876 
L 275.884452 190.32474 
L 276.334325 191.974595 
L 276.784197 190.307066 
L 277.234069 192.213909 
L 277.683941 190.686785 
L 278.133814 192.148083 
L 278.583686 192.641541 
L 279.033558 191.952048 
L 279.48343 192.186341 
L 279.933303 192.850175 
L 280.383175 192.947264 
L 280.833047 192.357414 
L 281.282919 191.951171 
L 281.732792 191.846016 
L 283.082408 190.411471 
L 283.532281 191.117846 
L 283.982153 190.505025 
L 284.432025 190.940791 
L 284.881897 189.137566 
L 285.781642 187.767005 
L 286.231514 186.527586 
L 286.681386 186.8031 
L 287.131258 186.11283 
L 287.581131 186.430638 
L 288.480875 190.425753 
L 288.930747 193.550457 
L 289.38062 194.258301 
L 289.830492 194.737789 
L 290.280364 196.429082 
L 290.730236 197.163916 
L 291.629981 197.798197 
L 292.079853 198.517434 
L 292.529725 198.89487 
L 292.979598 197.981281 
L 293.42947 198.74587 
L 293.879342 198.923093 
L 294.329214 199.915042 
L 294.779087 199.499336 
L 295.228959 199.738505 
L 295.678831 198.733543 
L 296.578576 199.871292 
L 297.028448 199.723667 
L 297.47832 201.186362 
L 297.928192 201.641609 
L 298.378065 200.973313 
L 299.277809 201.285836 
L 299.727681 202.227394 
L 300.177554 201.003442 
L 300.627426 201.22534 
L 301.077298 201.248395 
L 301.52717 201.53763 
L 301.977043 200.926544 
L 302.426915 201.318955 
L 302.876787 201.399636 
L 303.326659 201.258327 
L 303.776532 201.725129 
L 304.676276 202.249919 
L 305.126148 202.079516 
L 305.576021 201.781602 
L 306.025893 203.27235 
L 306.475765 201.743148 
L 306.925637 203.112752 
L 307.375509 201.757827 
L 307.825382 203.329273 
L 308.275254 204.484633 
L 308.725126 203.450004 
L 309.174998 203.384333 
L 309.624871 203.001902 
L 310.074743 203.636686 
L 310.524615 204.732125 
L 310.974487 204.286239 
L 311.42436 204.066807 
L 311.874232 203.497411 
L 312.324104 204.246546 
L 312.773976 204.669016 
L 313.223849 203.99983 
L 313.673721 204.851575 
L 314.123593 205.21379 
L 314.573465 205.124688 
L 315.023338 205.345113 
L 315.47321 204.600067 
L 316.372954 206.70482 
L 316.822827 207.110642 
L 317.272699 207.01607 
L 317.722571 206.212957 
L 318.622316 206.915399 
L 319.072188 207.615903 
L 319.52206 206.186744 
L 319.971932 207.226377 
L 320.871677 207.820977 
L 321.771421 205.649967 
L 322.221294 205.795823 
L 322.671166 207.189384 
L 323.121038 206.281926 
L 323.57091 206.813368 
L 324.020783 207.164006 
L 324.470655 206.488708 
L 324.920527 206.680026 
L 325.370399 206.364436 
L 325.820271 206.413377 
L 326.270144 205.843606 
L 327.169888 206.469693 
L 327.61976 204.750966 
L 328.069633 205.048009 
L 328.519505 207.02096 
L 328.969377 206.596117 
L 330.318994 203.859485 
L 330.768866 203.563815 
L 331.218738 202.310391 
L 332.568355 201.257592 
L 333.018227 200.632564 
L 333.4681 199.134543 
L 335.267589 201.302028 
L 335.717461 201.585899 
L 336.167333 202.748082 
L 336.617205 204.708179 
L 337.067078 207.266478 
L 337.51695 208.168356 
L 337.966822 208.80148 
L 338.416694 209.850654 
L 338.866567 209.673711 
L 339.766311 211.78443 
L 340.216183 211.59435 
L 340.666056 212.177706 
L 341.115928 212.248939 
L 341.5658 212.628705 
L 342.015672 213.690253 
L 342.915417 213.08548 
L 343.365289 211.80472 
L 344.265034 213.586687 
L 344.714906 213.494155 
L 345.164778 213.733391 
L 345.61465 213.135727 
L 346.514395 213.881485 
L 346.964267 213.261621 
L 347.414139 213.688772 
L 347.864011 213.24651 
L 348.313884 213.677277 
L 348.763756 213.836916 
L 349.213628 213.872167 
L 349.6635 214.775975 
L 350.113373 214.961779 
L 350.563245 214.788039 
L 351.013117 213.609601 
L 351.462989 215.036839 
L 351.912862 214.995687 
L 352.362734 214.69987 
L 352.812606 214.244061 
L 353.262478 213.46065 
L 353.712351 214.137411 
L 354.162223 214.059653 
L 354.612095 213.007462 
L 355.061967 213.80784 
L 355.51184 214.238585 
L 355.961712 214.460452 
L 356.411584 214.351841 
L 356.861456 214.6257 
L 357.311329 215.534126 
L 358.211073 215.300348 
L 358.660945 215.565497 
L 359.110818 214.990771 
L 359.56069 216.213273 
L 360.460434 213.793714 
L 360.910307 214.707771 
L 361.360179 215.120467 
L 361.810051 214.799431 
L 362.259923 214.631706 
L 362.709796 214.746897 
L 363.60954 214.447595 
L 364.059412 215.156496 
L 364.509284 216.126924 
L 364.959157 215.583677 
L 365.409029 216.425005 
L 366.308773 217.364749 
L 366.758646 218.263946 
L 367.208518 217.311893 
L 367.65839 218.86133 
L 368.108262 218.579805 
L 368.558135 218.865357 
L 369.457879 218.940994 
L 370.357624 219.409969 
L 370.807496 218.899004 
L 371.257368 219.452465 
L 372.157113 219.895062 
L 372.606985 220.371106 
L 373.056857 219.570216 
L 373.506729 219.014011 
L 373.956602 218.993526 
L 374.406474 219.735882 
L 375.306218 218.279614 
L 375.756091 218.60076 
L 376.205963 219.233234 
L 376.655835 219.177735 
L 377.105707 218.494313 
L 378.005452 217.997135 
L 378.455324 218.262096 
L 378.905196 217.652055 
L 379.355069 220.238891 
L 379.804941 219.171787 
L 380.254813 218.792686 
L 380.704685 220.341242 
L 381.154558 220.184827 
L 381.60443 221.833946 
L 382.054302 222.57083 
L 382.954046 222.189302 
L 383.403919 221.24673 
L 383.853791 222.507414 
L 384.303663 222.251795 
L 384.753535 223.751714 
L 385.203408 222.748587 
L 385.65328 222.560308 
L 386.103152 223.219511 
L 386.553024 223.055638 
L 387.002897 223.465542 
L 387.452769 223.333684 
L 387.902641 223.361729 
L 388.802386 223.096506 
L 389.252258 223.891283 
L 389.70213 224.191918 
L 390.601875 222.372863 
L 391.051747 222.566741 
L 391.501619 223.654596 
L 391.951491 223.626687 
L 392.401364 224.415791 
L 392.851236 224.080072 
L 393.301108 224.454632 
L 393.75098 223.874497 
L 394.200853 224.596028 
L 394.650725 224.902343 
L 395.100597 224.066802 
L 395.550469 225.373746 
L 396.000342 224.929139 
L 396.900086 225.148461 
L 397.349958 225.310046 
L 397.799831 224.422849 
L 398.699575 224.923094 
L 399.149447 225.877493 
L 399.59932 225.292129 
L 400.499064 224.985618 
L 400.948936 225.24188 
L 401.398809 225.663289 
L 401.848681 226.299365 
L 402.298553 226.303095 
L 402.748425 225.308828 
L 403.64817 225.855436 
L 404.098042 226.390213 
L 405.447659 225.647919 
L 405.897531 226.282473 
L 407.247148 227.353353 
L 407.69702 227.129236 
L 408.146892 226.463843 
L 408.596764 227.258759 
L 409.046637 227.009724 
L 409.496509 227.363786 
L 409.946381 226.848919 
L 410.396253 226.985303 
L 411.295998 226.919498 
L 411.74587 226.723401 
L 412.195742 226.8082 
L 412.645615 228.012269 
L 413.095487 227.898636 
L 413.545359 227.133079 
L 413.995231 226.883303 
L 414.445104 227.041855 
L 414.894976 227.994649 
L 415.344848 227.373996 
L 415.79472 227.973468 
L 416.244593 227.491451 
L 416.694465 228.333368 
L 417.144337 228.199605 
L 417.594209 228.590059 
L 418.044082 228.130888 
L 418.493954 227.9493 
L 418.943826 229.222616 
L 420.293443 227.812118 
L 420.743315 228.457023 
L 421.193187 229.361219 
L 421.643059 229.027737 
L 422.092932 229.255014 
L 422.542804 229.321293 
L 422.992676 230.072446 
L 423.442548 229.273318 
L 423.892421 229.593432 
L 424.342293 229.21501 
L 424.792165 229.000787 
L 425.242037 229.67622 
L 425.69191 229.099781 
L 426.141782 229.854046 
L 427.491399 229.782316 
L 427.941271 230.988652 
L 428.391143 230.404738 
L 428.841015 230.813826 
L 429.290888 230.014242 
L 429.74076 230.604119 
L 430.190632 230.785997 
L 430.640504 230.253627 
L 431.090377 230.334484 
L 431.540249 230.702158 
L 431.990121 229.635521 
L 432.439993 230.896912 
L 432.889866 230.245746 
L 433.339738 231.054561 
L 433.78961 231.4655 
L 434.689355 230.055681 
L 435.139227 230.248429 
L 435.589099 231.248408 
L 436.488844 231.027547 
L 436.938716 231.728409 
L 437.388588 231.270281 
L 437.83846 231.042732 
L 438.288333 231.465681 
L 439.188077 231.832812 
L 439.637949 232.363649 
L 440.087822 232.198337 
L 440.537694 232.382561 
L 440.987566 231.819724 
L 441.437438 232.489845 
L 441.88731 232.510671 
L 442.337183 231.959453 
L 442.787055 232.70873 
L 443.236927 232.459031 
L 443.686799 233.194338 
L 444.136672 232.839137 
L 445.036416 233.112193 
L 445.486288 233.128286 
L 445.936161 232.914691 
L 446.386033 232.542116 
L 446.835905 232.701217 
L 447.285777 233.305965 
L 447.73565 233.591201 
L 448.185522 233.123815 
L 449.085266 232.938571 
L 449.535139 233.782422 
L 449.985011 234.083215 
L 450.884755 233.333043 
L 451.334628 233.550098 
L 452.684244 234.51554 
L 453.134117 233.578725 
L 453.583989 233.97411 
L 454.033861 234.739295 
L 454.483733 234.632919 
L 455.383478 235.507455 
L 455.83335 234.849034 
L 456.283222 234.481883 
L 456.733095 235.082233 
L 457.182967 235.443654 
L 457.632839 234.820561 
L 458.082711 233.961573 
L 458.532584 234.566822 
L 458.982456 234.810868 
L 459.432328 234.444762 
L 459.8822 234.811728 
L 460.332072 234.360186 
L 460.781945 235.012466 
L 461.231817 235.165031 
L 461.681689 235.733978 
L 462.131561 234.726668 
L 462.581434 234.881168 
L 463.481178 234.302042 
L 463.93105 235.325985 
L 464.380923 235.162377 
L 464.830795 234.717364 
L 465.280667 235.874699 
L 465.730539 235.140408 
L 466.630284 235.661154 
L 467.530028 235.514478 
L 467.979901 236.052505 
L 468.429773 235.216768 
L 468.879645 235.673099 
L 469.329517 235.428415 
L 469.77939 236.546812 
L 470.229262 236.584275 
L 470.679134 235.735788 
L 471.129006 236.800242 
L 471.578879 235.543154 
L 472.028751 235.890284 
L 472.478623 236.084378 
L 472.928495 236.033285 
L 473.378368 235.857036 
L 473.82824 237.082385 
L 474.278112 237.04972 
L 474.727984 236.495017 
L 475.177857 236.429783 
L 475.627729 237.135189 
L 476.077601 235.552956 
L 476.527473 237.034225 
L 476.977346 236.26858 
L 477.87709 237.08179 
L 478.326962 236.951383 
L 478.776835 237.107756 
L 479.226707 237.666541 
L 479.676579 237.455165 
L 480.126451 237.529377 
L 480.576323 237.760135 
L 481.026196 237.393335 
L 481.476068 238.073693 
L 481.92594 238.008951 
L 483.275557 236.999861 
L 483.725429 238.37352 
L 484.175301 238.243826 
L 484.625174 237.933089 
L 485.075046 238.247558 
L 485.524918 237.497769 
L 486.424663 238.159484 
L 486.874535 237.523663 
L 487.324407 237.345234 
L 487.774279 238.034941 
L 488.224152 237.157903 
L 488.674024 237.207075 
L 489.573768 238.589257 
L 490.023641 238.14286 
L 490.473513 238.54826 
L 490.923385 238.624685 
L 490.923385 238.624685 
" clip-path="url(#p6f2f053b41)" style="fill: none; stroke: #ff8c00; stroke-opacity: 0.85; stroke-linecap: square"/>
   </g>
   <g id="patch_3">
    <path d="M 44.194375 271.798125 
L 44.194375 22.318125 
" style="fill: none; stroke: #000000; stroke-linejoin: miter; stroke-linecap: square"/>
   </g>
   <g id="patch_4">
    <path d="M 490.594375 271.798125 
L 490.594375 22.318125 
" style="fill: none; stroke: #000000; stroke-linejoin: miter; stroke-linecap: square"/>
   </g>
   <g id="patch_5">
    <path d="M 44.194375 271.798125 
L 490.594375 271.798125 
" style="fill: none; stroke: #000000; stroke-linejoin: miter; stroke-linecap: square"/>
   </g>
   <g id="patch_6">
    <path d="M 44.194375 22.318125 
L 490.594375 22.318125 
" style="fill: none; stroke: #000000; stroke-linejoin: miter; stroke-linecap: square"/>
   </g>
   <g id="text_17">
    <text style="font-size: 12px; font-family: 'DejaVu Sans', 'Bitstream Vera Sans', 'Computer Modern Sans Serif', 'Lucida Grande', 'Verdana', 'Geneva', 'Lucid', 'Arial', 'Helvetica', 'Avant Garde', sans-serif; text-anchor: middle" x="267.394375" y="16.318125" transform="rotate(-0 267.394375 16.318125)">Highest-SNR vs. mean vs. median spectrum (all conditions pooled)</text>
   </g>
   <g id="legend_1">
    <g id="line2d_18">
     <path d="M 344.248125 32.796875 
L 352.248125 32.796875 
L 360.248125 32.796875 
" style="fill: none; stroke: #808080; stroke-opacity: 0.85; stroke-linecap: square"/>
    </g>
    <g id="text_18">
     <text style="font-size: 8px; font-family: 'DejaVu Sans', 'Bitstream Vera Sans', 'Computer Modern Sans Serif', 'Lucida Grande', 'Verdana', 'Geneva', 'Lucid', 'Arial', 'Helvetica', 'Avant Garde', sans-serif; text-anchor: start" x="366.648125" y="35.596875" transform="rotate(-0 366.648125 35.596875)">Highest-SNR single spectrum</text>
    </g>
    <g id="line2d_19">
     <path d="M 344.248125 44.7975 
L 352.248125 44.7975 
L 360.248125 44.7975 
" style="fill: none; stroke: #000080; stroke-opacity: 0.85; stroke-linecap: square"/>
    </g>
    <g id="text_19">
     <text style="font-size: 8px; font-family: 'DejaVu Sans', 'Bitstream Vera Sans', 'Computer Modern Sans Serif', 'Lucida Grande', 'Verdana', 'Geneva', 'Lucid', 'Arial', 'Helvetica', 'Avant Garde', sans-serif; text-anchor: start" x="366.648125" y="47.5975" transform="rotate(-0 366.648125 47.5975)">Mean (all 97)</text>
    </g>
    <g id="line2d_20">
     <path d="M 344.248125 56.798125 
L 352.248125 56.798125 
L 360.248125 56.798125 
" style="fill: none; stroke: #ff8c00; stroke-opacity: 0.85; stroke-linecap: square"/>
    </g>
    <g id="text_20">
     <text style="font-size: 8px; font-family: 'DejaVu Sans', 'Bitstream Vera Sans', 'Computer Modern Sans Serif', 'Lucida Grande', 'Verdana', 'Geneva', 'Lucid', 'Arial', 'Helvetica', 'Avant Garde', sans-serif; text-anchor: start" x="366.648125" y="59.598125" transform="rotate(-0 366.648125 59.598125)">Median (all 97)</text>
    </g>
   </g>
  </g>
 </g>
 <defs>
  <clipPath id="p6f2f053b41">
   <rect x="44.194375" y="22.318125" width="446.4" height="249.48"/>
  </clipPath>
 </defs>
</svg>
